<svg height="512pt" viewBox="-64 0 512 512.00134" width="512pt" xmlns="http://www.w3.org/2000/svg"><path d="m39.550781 162.550781c2.566407 0 5.136719-.980469 7.097657-2.941406 3.921874-3.921875 3.921874-10.277344 0-14.199219-17.128907-17.132812-26.566407-39.90625-26.566407-64.136718 0-24.226563 9.4375-47 26.566407-64.132813 3.921874-3.921875 3.921874-10.277344 0-14.199219-3.921876-3.921875-10.28125-3.921875-14.199219 0-20.925781 20.925782-32.449219 48.742188-32.449219 78.335938 0 29.589844 11.523438 57.410156 32.449219 78.335937 1.960937 1.957031 4.527343 2.9375 7.101562 2.9375zm0 0"/><path d="m83.644531 143.203125c2.570313 0 5.140625-.980469 7.101563-2.941406 3.921875-3.921875 3.921875-10.28125 0-14.203125-11.960938-11.960938-18.550782-27.867188-18.550782-44.78125 0-16.917969 6.589844-32.824219 18.550782-44.785156 3.921875-3.921876 3.921875-10.28125 0-14.203126-3.921875-3.917968-10.28125-3.917968-14.203125 0-32.523438 32.527344-32.523438 85.445313 0 117.96875 1.960937 1.964844 4.53125 2.945313 7.101562 2.945313zm0 0"/><path d="m127.742188 123.851562c2.570312 0 5.140624-.980468 7.101562-2.941406 3.917969-3.921875 3.917969-10.28125 0-14.203125-14.027344-14.023437-14.027344-36.839843 0-50.867187 3.917969-3.917969 3.917969-10.277344 0-14.199219-3.921875-3.921875-10.28125-3.921875-14.203125 0-21.855469 21.855469-21.855469 57.414063 0 79.269531 1.960937 1.960938 4.53125 2.941406 7.101563 2.941406zm0 0"/><path d="m205.726562 119.957031c15.855469-5.703125 27.222657-20.886719 27.222657-38.679687 0-22.660156-18.433594-41.097656-41.09375-41.097656-22.664063 0-41.097657 18.4375-41.097657 41.097656 0 17.792968 11.367188 32.976562 27.222657 38.679687l-151.59375 378.265625c-2.0625 5.144532.4375 10.992188 5.585937 13.054688 5.144532 2.066406 10.992188-.4375 13.054688-5.585938l25.953125-64.757812h106.308593c5.546876 0 10.042969-4.496094 10.042969-10.042969 0-5.542969-4.496093-10.039063-10.042969-10.039063h-69.199218l162.90625-84.046874 33.683594 84.046874h-46.824219c-5.546875 0-10.039063 4.496094-10.039063 10.039063 0 5.546875 4.492188 10.042969 10.039063 10.042969h54.871093l25.953126 64.757812c1.570312 3.921875 5.339843 6.308594 9.324218 6.308594 1.242188 0 2.507813-.230469 3.730469-.722656 5.148437-2.066406 7.648437-7.910156 5.585937-13.058594zm-48.015624 104.566407c.714843.164062 1.460937.257812 2.226562.257812h38.328125l-64.894531 60.46875zm7.945312-19.828126 26.199219-65.371093 26.199219 65.371093zm5.183594-123.417968c0-11.585938 9.429687-21.015625 21.015625-21.015625 11.585937 0 21.011719 9.429687 21.011719 21.015625 0 11.585937-9.425782 21.011718-21.011719 21.011718-11.585938 0-21.015625-9.425781-21.015625-21.011718zm-87.96875 329.988281 31.421875-78.410156h120.550781zm50.421875-98.492187 93.25-86.890626 34.824219 86.890626zm0 0"/><path d="m337.058594 159.613281c1.960937 1.957031 4.53125 2.941407 7.101562 2.941407 2.570313 0 5.140625-.984376 7.101563-2.941407 20.921875-20.925781 32.445312-48.746093 32.445312-78.335937 0-29.59375-11.523437-57.410156-32.445312-78.335938-3.921875-3.921875-10.28125-3.921875-14.203125 0s-3.921875 10.277344 0 14.203125c17.132812 17.128907 26.566406 39.90625 26.566406 64.132813 0 24.226562-9.433594 47.003906-26.566406 64.132812-3.921875 3.921875-3.921875 10.277344 0 14.203125zm0 0"/><path d="m292.964844 140.261719c1.960937 1.960937 4.53125 2.941406 7.097656 2.941406 2.570312 0 5.140625-.980469 7.101562-2.941406 32.523438-32.527344 32.523438-85.445313 0-117.96875-3.921874-3.921875-10.28125-3.921875-14.203124 0-3.917969 3.921875-3.917969 10.277343 0 14.199219 11.964843 11.964843 18.550781 27.867187 18.550781 44.785156 0 16.917968-6.585938 32.820312-18.550781 44.785156-3.917969 3.917969-3.917969 10.277344.003906 14.199219zm0 0"/><path d="m248.867188 120.910156c1.960937 1.960938 4.53125 2.941406 7.097656 2.941406 2.570312 0 5.140625-.980468 7.101562-2.941406 21.855469-21.855468 21.855469-57.414062 0-79.269531-3.921875-3.917969-10.277344-3.917969-14.203125 0-3.917969 3.921875-3.917969 10.28125 0 14.203125 14.027344 14.023438 14.027344 36.84375 0 50.867188-3.917969 3.917968-3.917969 10.277343.003907 14.199218zm0 0"/><path d="m226.859375 427.046875c-1.632813-3.953125-5.722656-6.476563-9.992187-6.167969-4.160157.296875-7.78125 3.25-8.929688 7.253906-1.15625 4.023438.390625 8.492188 3.808594 10.917969 3.382812 2.40625 7.953125 2.472657 11.417968.183594 3.960938-2.613281 5.496094-7.828125 3.695313-12.1875zm0 0"/></svg>